<svg width="173" height="32" viewBox="0 0 173 32" fill="none" xmlns="http://www.w3.org/2000/svg">
<path fill-rule="evenodd" clip-rule="evenodd" d="M27.8333 15C27.8333 22.0877 22.0877 27.8333 15 27.8333C7.91234 27.8333 2.16666 22.0877 2.16666 15C2.16666 7.9123 7.91234 2.16666 15 2.16666C22.0877 2.16666 27.8333 7.9123 27.8333 15ZM30 15C30 23.2843 23.2843 30 15 30C6.71573 30 0 23.2843 0 15C0 6.71573 6.71573 0 15 0C23.2843 0 30 6.71573 30 15ZM23.2759 8.2759C23.2759 9.1329 22.5812 9.8276 21.7242 9.8276C20.8672 9.8276 20.1725 9.1329 20.1725 8.2759C20.1725 7.4189 20.8672 6.72418 21.7242 6.72418C22.5812 6.72418 23.2759 7.4189 23.2759 8.2759ZM10.4879 16.209C11.1556 18.7009 13.717 20.1797 16.2089 19.512C18.7008 18.8443 20.1796 16.2829 19.5119 13.791C18.8442 11.2991 16.2828 9.8203 13.7909 10.488C11.299 11.1557 9.82015 13.7171 10.4879 16.209ZM8.39503 16.7698C9.37244 20.4175 13.1219 22.5823 16.7696 21.6049C20.4174 20.6274 22.5821 16.878 21.6047 13.2302C20.6273 9.5825 16.8779 7.4177 13.2301 8.3952C9.58236 9.3726 7.41762 13.122 8.39503 16.7698Z" fill="url(#paint0_linear_34_9)"/>
<path d="M39.987 25.533C39.945 24.147 39.924 22.817 39.924 21.543C39.924 19.247 39.994 17.168 40.134 15.306C40.274 13.444 40.477 11.862 40.743 10.56C40.869 9.958 41.044 9.377 41.268 8.817C41.506 8.257 41.835 7.802 42.255 7.452C42.689 7.088 43.256 6.906 43.956 6.906C44.642 6.906 45.223 7.088 45.699 7.452C46.175 7.802 46.56 8.229 46.854 8.733C47.162 9.237 47.386 9.72 47.526 10.182C47.89 11.274 48.198 12.366 48.45 13.458C48.702 14.55 48.926 15.593 49.122 16.587C49.262 15.859 49.423 15.096 49.605 14.298C49.787 13.486 49.969 12.723 50.151 12.009C50.333 11.281 50.501 10.679 50.655 10.203C51.369 8.005 52.468 6.906 53.952 6.906C54.778 6.906 55.478 7.207 56.052 7.809C56.626 8.397 57.046 9.251 57.312 10.371C57.438 10.875 57.564 11.61 57.69 12.576C57.83 13.542 57.956 14.69 58.068 16.02C58.194 17.336 58.299 18.792 58.383 20.388C58.481 21.984 58.558 23.678 58.614 25.47L54.918 25.386C54.918 24.644 54.897 23.783 54.855 22.803C54.827 21.823 54.778 20.808 54.708 19.758C54.652 18.694 54.582 17.658 54.498 16.65C54.428 15.642 54.351 14.732 54.267 13.92C54.197 13.108 54.127 12.464 54.057 11.988C53.987 11.498 53.924 11.253 53.868 11.253C53.854 11.253 53.777 11.505 53.637 12.009C53.511 12.499 53.35 13.157 53.154 13.983C52.972 14.809 52.769 15.719 52.545 16.713C52.321 17.707 52.097 18.708 51.873 19.716C51.663 20.71 51.474 21.634 51.306 22.488C51.138 23.328 51.005 24.014 50.907 24.546L47.61 24.63C47.442 23.846 47.239 22.985 47.001 22.047C46.777 21.095 46.539 20.129 46.287 19.149C46.049 18.155 45.811 17.203 45.573 16.293C45.335 15.369 45.111 14.543 44.901 13.815C44.705 13.087 44.544 12.513 44.418 12.093C44.292 11.659 44.215 11.442 44.187 11.442C44.131 11.442 44.068 11.75 43.998 12.366C43.942 12.968 43.886 13.787 43.83 14.823C43.774 15.859 43.725 17.028 43.683 18.33C43.655 19.632 43.641 20.976 43.641 22.362C43.641 23.02 43.641 23.622 43.641 24.168C43.655 24.714 43.669 25.162 43.683 25.512L39.987 25.533ZM66.9604 25.68C65.6164 25.68 64.4334 25.414 63.4114 24.882C62.4034 24.364 61.6124 23.636 61.0384 22.698C60.4784 21.76 60.1984 20.675 60.1984 19.443C60.1984 18.701 60.3244 17.924 60.5764 17.112C60.8284 16.286 61.2344 15.516 61.7944 14.802C62.3544 14.088 63.0894 13.507 63.9994 13.059C64.9234 12.611 66.0434 12.387 67.3594 12.387C68.3114 12.387 69.1094 12.492 69.7534 12.702C70.4114 12.912 70.9434 13.185 71.3494 13.521C71.7694 13.857 72.0844 14.214 72.2944 14.592C72.5184 14.97 72.6654 15.334 72.7354 15.684C72.8194 16.02 72.8614 16.3 72.8614 16.524C72.8614 17.882 72.2874 18.932 71.1394 19.674C70.0054 20.402 68.3954 20.766 66.3094 20.766C65.8334 20.766 65.3784 20.745 64.9444 20.703C64.5244 20.661 64.1324 20.612 63.7684 20.556C64.0344 21.256 64.4754 21.774 65.0914 22.11C65.7074 22.432 66.3444 22.593 67.0024 22.593C67.9544 22.593 68.7944 22.425 69.5224 22.089C70.2504 21.739 70.9364 21.207 71.5804 20.493L73.4494 23.181C73.0014 23.545 72.4974 23.923 71.9374 24.315C71.3914 24.707 70.7194 25.029 69.9214 25.281C69.1234 25.547 68.1364 25.68 66.9604 25.68ZM67.4224 15.537C66.5964 15.537 65.8684 15.747 65.2384 16.167C64.6084 16.587 64.1464 17.14 63.8524 17.826C64.2024 17.882 64.5454 17.931 64.8814 17.973C65.2314 18.001 65.5744 18.015 65.9104 18.015C66.2184 18.015 66.5684 17.987 66.9604 17.931C67.3664 17.875 67.7584 17.791 68.1364 17.679C68.5284 17.567 68.8504 17.427 69.1024 17.259C69.3544 17.077 69.4804 16.867 69.4804 16.629C69.4804 16.517 69.4244 16.377 69.3124 16.209C69.2004 16.041 68.9974 15.887 68.7034 15.747C68.4094 15.607 67.9824 15.537 67.4224 15.537ZM75.0764 25.638C75.0624 25.428 75.0484 25.078 75.0344 24.588C75.0204 24.112 75.0064 23.538 74.9924 22.866C74.9784 22.194 74.9714 21.473 74.9714 20.703C74.9714 19.919 74.9714 19.135 74.9714 18.351C74.9714 17.483 74.9714 16.657 74.9714 15.873C74.9854 15.089 74.9924 14.41 74.9924 13.836C75.0064 13.262 75.0134 12.849 75.0134 12.597L78.5624 12.534C78.5344 12.926 78.5134 13.402 78.4994 13.962C78.8634 13.472 79.2834 13.087 79.7594 12.807C80.2354 12.527 80.7814 12.387 81.3974 12.387C82.1394 12.387 82.7484 12.604 83.2244 13.038C83.7144 13.472 84.1134 14.039 84.4214 14.739C85.4294 13.171 86.6684 12.387 88.1384 12.387C88.9644 12.387 89.6434 12.569 90.1754 12.933C90.7214 13.283 91.1484 13.759 91.4564 14.361C91.7644 14.963 91.9884 15.642 92.1284 16.398C92.2824 17.154 92.3804 17.931 92.4224 18.729C92.4644 19.527 92.4854 20.297 92.4854 21.039C92.4854 21.921 92.4714 22.726 92.4434 23.454C92.4154 24.182 92.4084 24.875 92.4224 25.533H88.7894C88.7894 25.197 88.7894 24.77 88.7894 24.252C88.7894 23.748 88.7894 23.237 88.7894 22.719C88.8034 22.187 88.8104 21.732 88.8104 21.354C88.8104 20.962 88.8104 20.731 88.8104 20.661C88.8104 19.821 88.7894 19.03 88.7474 18.288C88.7054 17.546 88.6004 16.944 88.4324 16.482C88.2644 16.02 87.9914 15.789 87.6134 15.789C87.2494 15.789 86.9274 15.964 86.6474 16.314C86.3674 16.664 86.1154 17.119 85.8914 17.679C85.6814 18.239 85.4994 18.834 85.3454 19.464C85.3734 20.01 85.3944 20.556 85.4084 21.102C85.4224 21.634 85.4294 22.152 85.4294 22.656C85.4294 23.23 85.4224 23.727 85.4084 24.147C85.4084 24.581 85.4084 25.043 85.4084 25.533H81.8804C81.8804 24.399 81.8734 23.398 81.8594 22.53C81.8454 21.662 81.8174 20.822 81.7754 20.01C81.7054 18.554 81.5514 17.49 81.3134 16.818C81.0894 16.132 80.7744 15.789 80.3684 15.789C79.9204 15.789 79.5424 16.062 79.2344 16.608C78.9264 17.14 78.6744 17.791 78.4784 18.561C78.4924 19.681 78.5204 20.85 78.5624 22.068C78.6044 23.286 78.6604 24.462 78.7304 25.596L75.0764 25.638ZM100.55 25.722C99.4297 25.722 98.4497 25.54 97.6097 25.176C96.7837 24.812 96.0977 24.315 95.5517 23.685C95.0057 23.041 94.5997 22.306 94.3337 21.48C94.0677 20.654 93.9347 19.786 93.9347 18.876C93.9347 17.952 94.0957 17.098 94.4177 16.314C94.7537 15.516 95.2087 14.823 95.7827 14.235C96.3707 13.647 97.0567 13.192 97.8407 12.87C98.6247 12.534 99.4787 12.366 100.403 12.366C101.369 12.366 102.265 12.534 103.091 12.87C103.917 13.206 104.638 13.675 105.254 14.277C105.87 14.879 106.346 15.586 106.682 16.398C107.032 17.21 107.207 18.092 107.207 19.044C107.207 21.158 106.626 22.803 105.464 23.979C104.302 25.141 102.664 25.722 100.55 25.722ZM100.529 22.32C101.551 22.32 102.328 22.033 102.86 21.459C103.406 20.885 103.679 20.059 103.679 18.981C103.679 18.015 103.385 17.238 102.797 16.65C102.209 16.062 101.439 15.768 100.487 15.768C99.9127 15.768 99.3877 15.922 98.9117 16.23C98.4357 16.524 98.0507 16.923 97.7567 17.427C97.4767 17.917 97.3367 18.463 97.3367 19.065C97.3367 19.597 97.4417 20.115 97.6517 20.619C97.8757 21.123 98.2257 21.536 98.7017 21.858C99.1777 22.166 99.7867 22.32 100.529 22.32ZM116.476 24.987C115.02 24.987 113.795 24.728 112.801 24.21C111.807 23.706 111.009 23.034 110.407 22.194C109.819 21.354 109.392 20.437 109.126 19.443C108.86 18.449 108.727 17.462 108.727 16.482C108.727 15.32 108.916 14.172 109.294 13.038C109.672 11.904 110.239 10.875 110.995 9.951C111.765 9.027 112.717 8.285 113.851 7.725C114.999 7.165 116.336 6.885 117.862 6.885C119.15 6.885 120.277 7.074 121.243 7.452C122.209 7.816 123.035 8.264 123.721 8.796C124.421 9.314 124.981 9.804 125.401 10.266L122.776 13.101C122.384 12.639 121.964 12.205 121.516 11.799C121.082 11.393 120.564 11.064 119.962 10.812C119.36 10.56 118.618 10.434 117.736 10.434C116.784 10.434 115.965 10.609 115.279 10.959C114.593 11.295 114.033 11.75 113.599 12.324C113.165 12.898 112.843 13.542 112.633 14.256C112.437 14.97 112.339 15.705 112.339 16.461C112.339 17.357 112.486 18.183 112.78 18.939C113.088 19.695 113.543 20.304 114.145 20.766C114.761 21.228 115.524 21.459 116.434 21.459C117.554 21.459 118.478 21.2 119.206 20.682C119.934 20.164 120.438 19.422 120.718 18.456C120.116 18.498 119.535 18.554 118.975 18.624C118.429 18.68 117.939 18.743 117.505 18.813L117.148 15.411C117.974 15.229 118.926 15.096 120.004 15.012C121.096 14.914 122.139 14.865 123.133 14.865C124.505 14.865 125.534 14.949 126.22 15.117L126.136 18.561C125.842 18.477 125.373 18.414 124.729 18.372C124.729 18.68 124.729 19.002 124.729 19.338C124.743 19.674 124.75 20.017 124.75 20.367C124.75 21.333 124.736 22.285 124.708 23.223C124.68 24.161 124.652 24.91 124.624 25.47L121.033 25.386C121.047 25.204 121.068 24.924 121.096 24.546C121.138 24.168 121.18 23.741 121.222 23.265C120.746 23.769 120.123 24.182 119.353 24.504C118.597 24.826 117.638 24.987 116.476 24.987ZM128.067 25.638C128.123 24.476 128.165 23.314 128.193 22.152C128.221 20.99 128.235 19.842 128.235 18.708C128.221 17.672 128.2 16.65 128.172 15.642C128.158 14.62 128.123 13.633 128.067 12.681L131.595 12.576C131.609 13.094 131.63 13.626 131.658 14.172C132.106 13.612 132.624 13.164 133.212 12.828C133.814 12.478 134.5 12.303 135.27 12.303C135.564 12.303 135.942 12.345 136.404 12.429C136.866 12.513 137.335 12.674 137.811 12.912L137.412 16.461C137.062 16.251 136.684 16.104 136.278 16.02C135.886 15.922 135.557 15.873 135.291 15.873C134.395 15.873 133.632 16.279 133.002 17.091C132.386 17.889 131.966 19.002 131.742 20.43C131.742 21.41 131.728 22.348 131.7 23.244C131.686 24.126 131.651 24.924 131.595 25.638H128.067ZM143.942 25.659C142.892 25.659 141.94 25.386 141.086 24.84C140.232 24.308 139.553 23.587 139.049 22.677C138.559 21.753 138.314 20.724 138.314 19.59C138.314 18.526 138.51 17.567 138.902 16.713C139.294 15.845 139.826 15.103 140.498 14.487C141.184 13.871 141.961 13.402 142.829 13.08C143.697 12.744 144.607 12.576 145.559 12.576C146.357 12.576 147.141 12.688 147.911 12.912C147.967 12.618 148.016 12.324 148.058 12.03L151.649 12.639C151.551 12.905 151.453 13.304 151.355 13.836C151.257 14.368 151.173 14.963 151.103 15.621C151.047 16.279 150.998 16.937 150.956 17.595C150.914 18.253 150.893 18.848 150.893 19.38C150.893 19.814 150.921 20.241 150.977 20.661C151.047 21.067 151.187 21.403 151.397 21.669C151.607 21.921 151.929 22.047 152.363 22.047H152.657L152.132 25.701C151.208 25.701 150.445 25.54 149.843 25.218C149.241 24.91 148.758 24.49 148.394 23.958C147.792 24.63 147.106 25.078 146.336 25.302C145.566 25.54 144.768 25.659 143.942 25.659ZM141.758 20.01C141.828 20.682 142.101 21.221 142.577 21.627C143.067 22.019 143.683 22.215 144.425 22.215C145.139 22.215 145.734 22.026 146.21 21.648C146.686 21.256 147.078 20.724 147.386 20.052C147.372 19.828 147.365 19.597 147.365 19.359C147.365 18.869 147.379 18.365 147.407 17.847C147.435 17.329 147.47 16.818 147.512 16.314C146.924 16.09 146.308 15.978 145.664 15.978C144.908 15.978 144.229 16.132 143.627 16.44C143.039 16.734 142.577 17.147 142.241 17.679C141.905 18.211 141.737 18.827 141.737 19.527C141.737 19.611 141.737 19.695 141.737 19.779C141.737 19.863 141.744 19.94 141.758 20.01ZM153.97 25.638C153.956 25.428 153.942 25.078 153.928 24.588C153.914 24.112 153.9 23.538 153.886 22.866C153.872 22.194 153.865 21.473 153.865 20.703C153.865 19.919 153.865 19.135 153.865 18.351C153.865 17.483 153.865 16.657 153.865 15.873C153.879 15.089 153.886 14.41 153.886 13.836C153.9 13.262 153.907 12.849 153.907 12.597L157.456 12.534C157.428 12.926 157.407 13.402 157.393 13.962C157.757 13.472 158.177 13.087 158.653 12.807C159.129 12.527 159.675 12.387 160.291 12.387C161.033 12.387 161.642 12.604 162.118 13.038C162.608 13.472 163.007 14.039 163.315 14.739C164.323 13.171 165.562 12.387 167.032 12.387C167.858 12.387 168.537 12.569 169.069 12.933C169.615 13.283 170.042 13.759 170.35 14.361C170.658 14.963 170.882 15.642 171.022 16.398C171.176 17.154 171.274 17.931 171.316 18.729C171.358 19.527 171.379 20.297 171.379 21.039C171.379 21.921 171.365 22.726 171.337 23.454C171.309 24.182 171.302 24.875 171.316 25.533H167.683C167.683 25.197 167.683 24.77 167.683 24.252C167.683 23.748 167.683 23.237 167.683 22.719C167.697 22.187 167.704 21.732 167.704 21.354C167.704 20.962 167.704 20.731 167.704 20.661C167.704 19.821 167.683 19.03 167.641 18.288C167.599 17.546 167.494 16.944 167.326 16.482C167.158 16.02 166.885 15.789 166.507 15.789C166.143 15.789 165.821 15.964 165.541 16.314C165.261 16.664 165.009 17.119 164.785 17.679C164.575 18.239 164.393 18.834 164.239 19.464C164.267 20.01 164.288 20.556 164.302 21.102C164.316 21.634 164.323 22.152 164.323 22.656C164.323 23.23 164.316 23.727 164.302 24.147C164.302 24.581 164.302 25.043 164.302 25.533H160.774C160.774 24.399 160.767 23.398 160.753 22.53C160.739 21.662 160.711 20.822 160.669 20.01C160.599 18.554 160.445 17.49 160.207 16.818C159.983 16.132 159.668 15.789 159.262 15.789C158.814 15.789 158.436 16.062 158.128 16.608C157.82 17.14 157.568 17.791 157.372 18.561C157.386 19.681 157.414 20.85 157.456 22.068C157.498 23.286 157.554 24.462 157.624 25.596L153.97 25.638Z" fill="white"/>
<defs>
<linearGradient id="paint0_linear_34_9" x1="15" y1="0" x2="15" y2="30" gradientUnits="userSpaceOnUse">
<stop stop-color="#877EFF"/>
<stop offset="0.461458" stop-color="#685DFF"/>
<stop offset="1" stop-color="#3121FF"/>
</linearGradient>
</defs>
</svg>
